<svg xmlns="http://www.w3.org/2000/svg" width="760" height="224" font-family="ui-sans-serif,system-ui,Segoe UI,Roboto,Arial" font-size="12">
<rect width="760" height="224" fill="#ffffff"/>
<text x="16" y="24" font-size="15" font-weight="700" fill="#0f172a">Bulk-loader throughput vs dataset size</text>
<text x="16" y="42" font-size="11" fill="#64748b">Turtle load via Oxigraph BulkLoader; higher is better</text>
<line x1="168.0" y1="52" x2="168.0" y2="190" stroke="#eef2f7"/>
<text x="168.0" y="204" font-size="9" fill="#94a3b8" text-anchor="middle">0.00 k triples/s</text>
<line x1="293.0" y1="52" x2="293.0" y2="190" stroke="#eef2f7"/>
<text x="293.0" y="204" font-size="9" fill="#94a3b8" text-anchor="middle">227 k triples/s</text>
<line x1="418.0" y1="52" x2="418.0" y2="190" stroke="#eef2f7"/>
<text x="418.0" y="204" font-size="9" fill="#94a3b8" text-anchor="middle">454 k triples/s</text>
<line x1="543.0" y1="52" x2="543.0" y2="190" stroke="#eef2f7"/>
<text x="543.0" y="204" font-size="9" fill="#94a3b8" text-anchor="middle">681 k triples/s</text>
<line x1="668.0" y1="52" x2="668.0" y2="190" stroke="#eef2f7"/>
<text x="668.0" y="204" font-size="9" fill="#94a3b8" text-anchor="middle">908 k triples/s</text>
<text x="160" y="70.5" text-anchor="end" fill="#334155" font-size="11">500 triples</text>
<rect x="168" y="58" width="500.0" height="17" rx="2" fill="#2563eb"/>
<text x="673.0" y="71" font-size="10" fill="#475569">908 k triples/s</text>
<text x="160" y="103.5" text-anchor="end" fill="#334155" font-size="11">5k triples</text>
<rect x="168" y="91" width="495.0" height="17" rx="2" fill="#2563eb"/>
<text x="668.0" y="104" font-size="10" fill="#475569">899 k triples/s</text>
<text x="160" y="136.5" text-anchor="end" fill="#334155" font-size="11">50k triples</text>
<rect x="168" y="124" width="409.7" height="17" rx="2" fill="#2563eb"/>
<text x="582.7" y="137" font-size="10" fill="#475569">744 k triples/s</text>
<text x="160" y="169.5" text-anchor="end" fill="#334155" font-size="11">500k triples</text>
<rect x="168" y="157" width="300.1" height="17" rx="2" fill="#2563eb"/>
<text x="473.1" y="170" font-size="10" fill="#475569">545 k triples/s</text>
<text x="748" y="20" font-size="10" fill="#94a3b8" text-anchor="end">higher is better</text>
</svg>