<svg xmlns="http://www.w3.org/2000/svg" width="760" height="257" font-family="ui-sans-serif,system-ui,Segoe UI,Roboto,Arial" font-size="12">
<rect width="760" height="257" fill="#ffffff"/>
<text x="16" y="24" font-size="15" font-weight="700" fill="#0f172a">Concurrent query throughput vs threads (2-way join, 10k persons)</text>
<text x="16" y="42" font-size="11" fill="#64748b">shared store, lock-free reads; large-result workload (memory-bandwidth bound); higher is better</text>
<line x1="168.0" y1="52" x2="168.0" y2="223" stroke="#eef2f7"/>
<text x="168.0" y="237" font-size="9" fill="#94a3b8" text-anchor="middle">0.00 q/s</text>
<line x1="293.0" y1="52" x2="293.0" y2="223" stroke="#eef2f7"/>
<text x="293.0" y="237" font-size="9" fill="#94a3b8" text-anchor="middle">134 q/s</text>
<line x1="418.0" y1="52" x2="418.0" y2="223" stroke="#eef2f7"/>
<text x="418.0" y="237" font-size="9" fill="#94a3b8" text-anchor="middle">268 q/s</text>
<line x1="543.0" y1="52" x2="543.0" y2="223" stroke="#eef2f7"/>
<text x="543.0" y="237" font-size="9" fill="#94a3b8" text-anchor="middle">401 q/s</text>
<line x1="668.0" y1="52" x2="668.0" y2="223" stroke="#eef2f7"/>
<text x="668.0" y="237" font-size="9" fill="#94a3b8" text-anchor="middle">535 q/s</text>
<text x="160" y="70.5" text-anchor="end" fill="#334155" font-size="11">1 thread</text>
<rect x="168" y="58" width="119.6" height="17" rx="2" fill="#2563eb"/>
<text x="292.6" y="71" font-size="10" fill="#475569">128 q/s</text>
<text x="160" y="103.5" text-anchor="end" fill="#334155" font-size="11">2 threads</text>
<rect x="168" y="91" width="157.0" height="17" rx="2" fill="#2563eb"/>
<text x="330.0" y="104" font-size="10" fill="#475569">168 q/s</text>
<text x="160" y="136.5" text-anchor="end" fill="#334155" font-size="11">4 threads</text>
<rect x="168" y="124" width="348.6" height="17" rx="2" fill="#2563eb"/>
<text x="521.6" y="137" font-size="10" fill="#475569">373 q/s</text>
<text x="160" y="169.5" text-anchor="end" fill="#334155" font-size="11">8 threads</text>
<rect x="168" y="157" width="357.9" height="17" rx="2" fill="#2563eb"/>
<text x="530.9" y="170" font-size="10" fill="#475569">383 q/s</text>
<text x="160" y="202.5" text-anchor="end" fill="#334155" font-size="11">16 threads</text>
<rect x="168" y="190" width="500.0" height="17" rx="2" fill="#2563eb"/>
<text x="673.0" y="203" font-size="10" fill="#475569">535 q/s</text>
<text x="748" y="20" font-size="10" fill="#94a3b8" text-anchor="end">higher is better</text>
</svg>