<svg xmlns="http://www.w3.org/2000/svg" width="760" height="200" font-family="ui-sans-serif,system-ui,Segoe UI,Roboto,Arial" font-size="12">
<rect width="760" height="200" fill="#ffffff"/>
<text x="16" y="24" font-size="15" font-weight="700" fill="#0f172a">GeoSPARQL relation cost: points vs polygons (with WKT→WKB cache)</text>
<text x="16" y="42" font-size="11" fill="#64748b">geof:sfIntersects per candidate via GEOS; lower is better; −43% (points) / −57% (polygons) vs pre-cache</text>
<line x1="168.0" y1="52" x2="168.0" y2="166" stroke="#eef2f7"/>
<text x="168.0" y="180" font-size="9" fill="#94a3b8" text-anchor="middle">0.00 µs</text>
<line x1="293.0" y1="52" x2="293.0" y2="166" stroke="#eef2f7"/>
<text x="293.0" y="180" font-size="9" fill="#94a3b8" text-anchor="middle">65.8 µs</text>
<line x1="418.0" y1="52" x2="418.0" y2="166" stroke="#eef2f7"/>
<text x="418.0" y="180" font-size="9" fill="#94a3b8" text-anchor="middle">132 µs</text>
<line x1="543.0" y1="52" x2="543.0" y2="166" stroke="#eef2f7"/>
<text x="543.0" y="180" font-size="9" fill="#94a3b8" text-anchor="middle">197 µs</text>
<line x1="668.0" y1="52" x2="668.0" y2="166" stroke="#eef2f7"/>
<text x="668.0" y="180" font-size="9" fill="#94a3b8" text-anchor="middle">263 µs</text>
<text x="160" y="81" text-anchor="end" fill="#334155" font-size="11">50 features</text>
<rect x="168" y="58" width="150.6" height="17" rx="2" fill="#2563eb"/>
<text x="323.6" y="71" font-size="10" fill="#475569">79.2 µs</text>
<rect x="168" y="79" width="155.3" height="17" rx="2" fill="#ea580c"/>
<text x="328.3" y="92" font-size="10" fill="#475569">81.7 µs</text>
<text x="160" y="135" text-anchor="end" fill="#334155" font-size="11">200 features</text>
<rect x="168" y="112" width="447.7" height="17" rx="2" fill="#2563eb"/>
<text x="620.7" y="125" font-size="10" fill="#475569">236 µs</text>
<rect x="168" y="133" width="500.0" height="17" rx="2" fill="#ea580c"/>
<text x="673.0" y="146" font-size="10" fill="#475569">263 µs</text>
<rect x="168" y="185" width="10" height="10" rx="2" fill="#2563eb"/>
<text x="182" y="194" font-size="10" fill="#475569">points (2 coords)</text>
<rect x="303.4" y="185" width="10" height="10" rx="2" fill="#ea580c"/>
<text x="317.4" y="194" font-size="10" fill="#475569">polygons (5 vertices)</text>
<text x="748" y="20" font-size="10" fill="#94a3b8" text-anchor="end">lower is better</text>
</svg>