<svg xmlns="http://www.w3.org/2000/svg" width="760" height="224" font-family="ui-sans-serif,system-ui,Segoe UI,Roboto,Arial" font-size="12">
<rect width="760" height="224" fill="#ffffff"/>
<text x="16" y="24" font-size="15" font-weight="700" fill="#0f172a">SPARQL operator cost (10k persons / 50k triples)</text>
<text x="16" y="42" font-size="11" fill="#64748b">equivalent-result operators compared; lower is better</text>
<line x1="168.0" y1="52" x2="168.0" y2="190" stroke="#eef2f7"/>
<text x="168.0" y="204" font-size="9" fill="#94a3b8" text-anchor="middle">0.00 ms</text>
<line x1="293.0" y1="52" x2="293.0" y2="190" stroke="#eef2f7"/>
<text x="293.0" y="204" font-size="9" fill="#94a3b8" text-anchor="middle">2.02 ms</text>
<line x1="418.0" y1="52" x2="418.0" y2="190" stroke="#eef2f7"/>
<text x="418.0" y="204" font-size="9" fill="#94a3b8" text-anchor="middle">4.03 ms</text>
<line x1="543.0" y1="52" x2="543.0" y2="190" stroke="#eef2f7"/>
<text x="543.0" y="204" font-size="9" fill="#94a3b8" text-anchor="middle">6.04 ms</text>
<line x1="668.0" y1="52" x2="668.0" y2="190" stroke="#eef2f7"/>
<text x="668.0" y="204" font-size="9" fill="#94a3b8" text-anchor="middle">8.06 ms</text>
<text x="160" y="70.5" text-anchor="end" fill="#334155" font-size="11">MINUS</text>
<rect x="168" y="58" width="192.9" height="17" rx="2" fill="#2563eb"/>
<text x="365.9" y="71" font-size="10" fill="#475569">3.11 ms</text>
<text x="160" y="103.5" text-anchor="end" fill="#334155" font-size="11">NOT EXISTS (= MINUS)</text>
<rect x="168" y="91" width="500.0" height="17" rx="2" fill="#2563eb"/>
<text x="673.0" y="104" font-size="10" fill="#475569">8.06 ms</text>
<text x="160" y="136.5" text-anchor="end" fill="#334155" font-size="11">VALUES (2-pattern)</text>
<rect x="168" y="124" width="125.9" height="17" rx="2" fill="#2563eb"/>
<text x="298.9" y="137" font-size="10" fill="#475569">2.03 ms</text>
<text x="160" y="169.5" text-anchor="end" fill="#334155" font-size="11">2-way join (= VALUES)</text>
<rect x="168" y="157" width="472.7" height="17" rx="2" fill="#2563eb"/>
<text x="645.7" y="170" font-size="10" fill="#475569">7.62 ms</text>
<text x="748" y="20" font-size="10" fill="#94a3b8" text-anchor="end">lower is better</text>
</svg>