<svg xmlns="http://www.w3.org/2000/svg" width="760" height="467" font-family="ui-sans-serif,system-ui,Segoe UI,Roboto,Arial" font-size="12">
<rect width="760" height="467" fill="#ffffff"/>
<text x="16" y="24" font-size="15" font-weight="700" fill="#0f172a">Subject-sharded parallel query latency (600k triples)</text>
<text x="16" y="42" font-size="11" fill="#64748b">opengraph::parallel::ParallelStore — 1 shard = single-store (one core) baseline; lower is better</text>
<line x1="168.0" y1="52" x2="168.0" y2="433" stroke="#eef2f7"/>
<text x="168.0" y="447" font-size="9" fill="#94a3b8" text-anchor="middle">0.00 ms</text>
<line x1="293.0" y1="52" x2="293.0" y2="433" stroke="#eef2f7"/>
<text x="293.0" y="447" font-size="9" fill="#94a3b8" text-anchor="middle">38.1 ms</text>
<line x1="418.0" y1="52" x2="418.0" y2="433" stroke="#eef2f7"/>
<text x="418.0" y="447" font-size="9" fill="#94a3b8" text-anchor="middle">76.2 ms</text>
<line x1="543.0" y1="52" x2="543.0" y2="433" stroke="#eef2f7"/>
<text x="543.0" y="447" font-size="9" fill="#94a3b8" text-anchor="middle">114 ms</text>
<line x1="668.0" y1="52" x2="668.0" y2="433" stroke="#eef2f7"/>
<text x="668.0" y="447" font-size="9" fill="#94a3b8" text-anchor="middle">152 ms</text>
<text x="160" y="91.5" text-anchor="end" fill="#334155" font-size="11">1 shard</text>
<rect x="168" y="58" width="252.8" height="17" rx="2" fill="#2563eb"/>
<text x="425.8" y="71" font-size="10" fill="#475569">77.0 ms</text>
<rect x="168" y="79" width="500.0" height="17" rx="2" fill="#ea580c"/>
<text x="673.0" y="92" font-size="10" fill="#475569">152 ms</text>
<rect x="168" y="100" width="151.0" height="17" rx="2" fill="#16a34a"/>
<text x="324.0" y="113" font-size="10" fill="#475569">46.0 ms</text>
<text x="160" y="166.5" text-anchor="end" fill="#334155" font-size="11">2 shards</text>
<rect x="168" y="133" width="140.8" height="17" rx="2" fill="#2563eb"/>
<text x="313.8" y="146" font-size="10" fill="#475569">42.9 ms</text>
<rect x="168" y="154" width="248.9" height="17" rx="2" fill="#ea580c"/>
<text x="421.9" y="167" font-size="10" fill="#475569">75.8 ms</text>
<rect x="168" y="175" width="86.7" height="17" rx="2" fill="#16a34a"/>
<text x="259.7" y="188" font-size="10" fill="#475569">26.4 ms</text>
<text x="160" y="241.5" text-anchor="end" fill="#334155" font-size="11">4 shards</text>
<rect x="168" y="208" width="73.5" height="17" rx="2" fill="#2563eb"/>
<text x="246.5" y="221" font-size="10" fill="#475569">22.4 ms</text>
<rect x="168" y="229" width="130.3" height="17" rx="2" fill="#ea580c"/>
<text x="303.3" y="242" font-size="10" fill="#475569">39.7 ms</text>
<rect x="168" y="250" width="43.0" height="17" rx="2" fill="#16a34a"/>
<text x="216.0" y="263" font-size="10" fill="#475569">13.1 ms</text>
<text x="160" y="316.5" text-anchor="end" fill="#334155" font-size="11">8 shards</text>
<rect x="168" y="283" width="50.6" height="17" rx="2" fill="#2563eb"/>
<text x="223.6" y="296" font-size="10" fill="#475569">15.4 ms</text>
<rect x="168" y="304" width="74.2" height="17" rx="2" fill="#ea580c"/>
<text x="247.2" y="317" font-size="10" fill="#475569">22.6 ms</text>
<rect x="168" y="325" width="25.9" height="17" rx="2" fill="#16a34a"/>
<text x="198.9" y="338" font-size="10" fill="#475569">7.90 ms</text>
<text x="160" y="391.5" text-anchor="end" fill="#334155" font-size="11">16 shards</text>
<rect x="168" y="358" width="30.9" height="17" rx="2" fill="#2563eb"/>
<text x="203.9" y="371" font-size="10" fill="#475569">9.40 ms</text>
<rect x="168" y="379" width="43.7" height="17" rx="2" fill="#ea580c"/>
<text x="216.7" y="392" font-size="10" fill="#475569">13.3 ms</text>
<rect x="168" y="400" width="16.1" height="17" rx="2" fill="#16a34a"/>
<text x="189.1" y="413" font-size="10" fill="#475569">4.90 ms</text>
<rect x="168" y="452" width="10" height="10" rx="2" fill="#2563eb"/>
<text x="182" y="461" font-size="10" fill="#475569">COUNT(*)</text>
<rect x="247.6" y="452" width="10" height="10" rx="2" fill="#ea580c"/>
<text x="261.6" y="461" font-size="10" fill="#475569">2-way join COUNT</text>
<rect x="376.79999999999995" y="452" width="10" height="10" rx="2" fill="#16a34a"/>
<text x="390.79999999999995" y="461" font-size="10" fill="#475569">FILTER COUNT</text>
<text x="748" y="20" font-size="10" fill="#94a3b8" text-anchor="end">lower is better</text>
</svg>