<svg xmlns="http://www.w3.org/2000/svg" width="760" height="521" font-family="ui-sans-serif,system-ui,Segoe UI,Roboto,Arial" font-size="12">
<rect width="760" height="521" fill="#ffffff"/>
<text x="16" y="24" font-size="15" font-weight="700" fill="#0f172a">In-process SPARQL query latency (10k persons / 50k triples)</text>
<text x="16" y="42" font-size="11" fill="#64748b">criterion median, release build; lower is better</text>
<line x1="168.0" y1="52" x2="168.0" y2="487" stroke="#eef2f7"/>
<text x="168.0" y="501" font-size="9" fill="#94a3b8" text-anchor="middle">0.00 ms</text>
<line x1="293.0" y1="52" x2="293.0" y2="487" stroke="#eef2f7"/>
<text x="293.0" y="501" font-size="9" fill="#94a3b8" text-anchor="middle">2.96 ms</text>
<line x1="418.0" y1="52" x2="418.0" y2="487" stroke="#eef2f7"/>
<text x="418.0" y="501" font-size="9" fill="#94a3b8" text-anchor="middle">5.93 ms</text>
<line x1="543.0" y1="52" x2="543.0" y2="487" stroke="#eef2f7"/>
<text x="543.0" y="501" font-size="9" fill="#94a3b8" text-anchor="middle">8.89 ms</text>
<line x1="668.0" y1="52" x2="668.0" y2="487" stroke="#eef2f7"/>
<text x="668.0" y="501" font-size="9" fill="#94a3b8" text-anchor="middle">11.9 ms</text>
<text x="160" y="70.5" text-anchor="end" fill="#334155" font-size="11">CONSTRUCT</text>
<rect x="168" y="58" width="18.1" height="17" rx="2" fill="#2563eb"/>
<text x="191.1" y="71" font-size="10" fill="#475569">0.43 ms</text>
<text x="160" y="103.5" text-anchor="end" fill="#334155" font-size="11">VALUES</text>
<rect x="168" y="91" width="85.6" height="17" rx="2" fill="#2563eb"/>
<text x="258.6" y="104" font-size="10" fill="#475569">2.03 ms</text>
<text x="160" y="136.5" text-anchor="end" fill="#334155" font-size="11">FILTER</text>
<rect x="168" y="124" width="102.9" height="17" rx="2" fill="#2563eb"/>
<text x="275.9" y="137" font-size="10" fill="#475569">2.44 ms</text>
<text x="160" y="169.5" text-anchor="end" fill="#334155" font-size="11">simple lookup</text>
<rect x="168" y="157" width="115.1" height="17" rx="2" fill="#2563eb"/>
<text x="288.1" y="170" font-size="10" fill="#475569">2.73 ms</text>
<text x="160" y="202.5" text-anchor="end" fill="#334155" font-size="11">MINUS</text>
<rect x="168" y="190" width="131.1" height="17" rx="2" fill="#2563eb"/>
<text x="304.1" y="203" font-size="10" fill="#475569">3.11 ms</text>
<text x="160" y="235.5" text-anchor="end" fill="#334155" font-size="11">named graph</text>
<rect x="168" y="223" width="145.9" height="17" rx="2" fill="#2563eb"/>
<text x="318.9" y="236" font-size="10" fill="#475569">3.46 ms</text>
<text x="160" y="268.5" text-anchor="end" fill="#334155" font-size="11">COUNT(*)</text>
<rect x="168" y="256" width="298.9" height="17" rx="2" fill="#2563eb"/>
<text x="471.9" y="269" font-size="10" fill="#475569">7.09 ms</text>
<text x="160" y="301.5" text-anchor="end" fill="#334155" font-size="11">2-way join</text>
<rect x="168" y="289" width="321.2" height="17" rx="2" fill="#2563eb"/>
<text x="494.2" y="302" font-size="10" fill="#475569">7.62 ms</text>
<text x="160" y="334.5" text-anchor="end" fill="#334155" font-size="11">NOT EXISTS</text>
<rect x="168" y="322" width="339.8" height="17" rx="2" fill="#2563eb"/>
<text x="512.8" y="335" font-size="10" fill="#475569">8.06 ms</text>
<text x="160" y="367.5" text-anchor="end" fill="#334155" font-size="11">GROUP BY</text>
<rect x="168" y="355" width="372.7" height="17" rx="2" fill="#2563eb"/>
<text x="545.7" y="368" font-size="10" fill="#475569">8.84 ms</text>
<text x="160" y="400.5" text-anchor="end" fill="#334155" font-size="11">subquery</text>
<rect x="168" y="388" width="403.5" height="17" rx="2" fill="#2563eb"/>
<text x="576.5" y="401" font-size="10" fill="#475569">9.57 ms</text>
<text x="160" y="433.5" text-anchor="end" fill="#334155" font-size="11">OPTIONAL</text>
<rect x="168" y="421" width="408.9" height="17" rx="2" fill="#2563eb"/>
<text x="581.9" y="434" font-size="10" fill="#475569">9.70 ms</text>
<text x="160" y="466.5" text-anchor="end" fill="#334155" font-size="11">3-way join</text>
<rect x="168" y="454" width="500.0" height="17" rx="2" fill="#2563eb"/>
<text x="673.0" y="467" font-size="10" fill="#475569">11.9 ms</text>
<text x="748" y="20" font-size="10" fill="#94a3b8" text-anchor="end">lower is better</text>
</svg>