<svg xmlns="http://www.w3.org/2000/svg" width="760" height="191" font-family="ui-sans-serif,system-ui,Segoe UI,Roboto,Arial" font-size="12">
<rect width="760" height="191" fill="#ffffff"/>
<text x="16" y="24" font-size="15" font-weight="700" fill="#0f172a">SHACL validation throughput vs focus-node count</text>
<text x="16" y="42" font-size="11" fill="#64748b">1 NodeShape, 2 property constraints; fixed cost amortizes with scale</text>
<line x1="168.0" y1="52" x2="168.0" y2="157" stroke="#eef2f7"/>
<text x="168.0" y="171" font-size="9" fill="#94a3b8" text-anchor="middle">0.00 k nodes/s</text>
<line x1="293.0" y1="52" x2="293.0" y2="157" stroke="#eef2f7"/>
<text x="293.0" y="171" font-size="9" fill="#94a3b8" text-anchor="middle">71.5 k nodes/s</text>
<line x1="418.0" y1="52" x2="418.0" y2="157" stroke="#eef2f7"/>
<text x="418.0" y="171" font-size="9" fill="#94a3b8" text-anchor="middle">143 k nodes/s</text>
<line x1="543.0" y1="52" x2="543.0" y2="157" stroke="#eef2f7"/>
<text x="543.0" y="171" font-size="9" fill="#94a3b8" text-anchor="middle">215 k nodes/s</text>
<line x1="668.0" y1="52" x2="668.0" y2="157" stroke="#eef2f7"/>
<text x="668.0" y="171" font-size="9" fill="#94a3b8" text-anchor="middle">286 k nodes/s</text>
<text x="160" y="70.5" text-anchor="end" fill="#334155" font-size="11">100 nodes</text>
<rect x="168" y="58" width="148.6" height="17" rx="2" fill="#2563eb"/>
<text x="321.6" y="71" font-size="10" fill="#475569">85.0 k nodes/s</text>
<text x="160" y="103.5" text-anchor="end" fill="#334155" font-size="11">500 nodes</text>
<rect x="168" y="91" width="395.1" height="17" rx="2" fill="#2563eb"/>
<text x="568.1" y="104" font-size="10" fill="#475569">226 k nodes/s</text>
<text x="160" y="136.5" text-anchor="end" fill="#334155" font-size="11">1000 nodes</text>
<rect x="168" y="124" width="500.0" height="17" rx="2" fill="#2563eb"/>
<text x="673.0" y="137" font-size="10" fill="#475569">286 k nodes/s</text>
<text x="748" y="20" font-size="10" fill="#94a3b8" text-anchor="end">higher is better</text>
</svg>