<svg xmlns="http://www.w3.org/2000/svg" width="760" height="254" font-family="ui-sans-serif,system-ui,Segoe UI,Roboto,Arial" font-size="12">
<rect width="760" height="254" fill="#ffffff"/>
<text x="16" y="24" font-size="15" font-weight="700" fill="#0f172a">Optimized Open Triplestore vs Apache Jena Fuseki (~500k triples)</text>
<text x="16" y="42" font-size="11" fill="#64748b">best Open Triplestore path (fast-COUNT / 16-shard parallel engine) vs Fuseki TDB2; lower is better</text>
<line x1="168.0" y1="52" x2="168.0" y2="220" stroke="#eef2f7"/>
<text x="168.0" y="234" font-size="9" fill="#94a3b8" text-anchor="middle">0.00 ms</text>
<line x1="293.0" y1="52" x2="293.0" y2="220" stroke="#eef2f7"/>
<text x="293.0" y="234" font-size="9" fill="#94a3b8" text-anchor="middle">29.5 ms</text>
<line x1="418.0" y1="52" x2="418.0" y2="220" stroke="#eef2f7"/>
<text x="418.0" y="234" font-size="9" fill="#94a3b8" text-anchor="middle">59.0 ms</text>
<line x1="543.0" y1="52" x2="543.0" y2="220" stroke="#eef2f7"/>
<text x="543.0" y="234" font-size="9" fill="#94a3b8" text-anchor="middle">88.6 ms</text>
<line x1="668.0" y1="52" x2="668.0" y2="220" stroke="#eef2f7"/>
<text x="668.0" y="234" font-size="9" fill="#94a3b8" text-anchor="middle">118 ms</text>
<text x="160" y="81" text-anchor="end" fill="#334155" font-size="11">COUNT(*)</text>
<rect x="168" y="58" width="8.9" height="17" rx="2" fill="#2563eb"/>
<text x="181.9" y="71" font-size="10" fill="#475569">2.10 ms</text>
<rect x="168" y="79" width="232.9" height="17" rx="2" fill="#ea580c"/>
<text x="405.9" y="92" font-size="10" fill="#475569">55.0 ms</text>
<text x="160" y="135" text-anchor="end" fill="#334155" font-size="11">2-way join COUNT</text>
<rect x="168" y="112" width="56.3" height="17" rx="2" fill="#2563eb"/>
<text x="229.3" y="125" font-size="10" fill="#475569">13.3 ms</text>
<rect x="168" y="133" width="500.0" height="17" rx="2" fill="#ea580c"/>
<text x="673.0" y="146" font-size="10" fill="#475569">118 ms</text>
<text x="160" y="189" text-anchor="end" fill="#334155" font-size="11">FILTER COUNT</text>
<rect x="168" y="166" width="20.7" height="17" rx="2" fill="#2563eb"/>
<text x="193.7" y="179" font-size="10" fill="#475569">4.90 ms</text>
<rect x="168" y="187" width="174.4" height="17" rx="2" fill="#ea580c"/>
<text x="347.4" y="200" font-size="10" fill="#475569">41.2 ms</text>
<rect x="168" y="239" width="10" height="10" rx="2" fill="#2563eb"/>
<text x="182" y="248" font-size="10" fill="#475569">Open Triplestore (optimized)</text>
<rect x="371.6" y="239" width="10" height="10" rx="2" fill="#ea580c"/>
<text x="385.6" y="248" font-size="10" fill="#475569">Fuseki (TDB2)</text>
<text x="748" y="20" font-size="10" fill="#94a3b8" text-anchor="end">lower is better</text>
</svg>